<svg width="91" height="11" viewBox="0 0 91 11" fill="none" xmlns="http://www.w3.org/2000/svg">
<path d="M0.900391 4.55919C0.517248 4.55919 0.20665 4.86979 0.20665 5.25293C0.20665 5.63607 0.517248 5.94667 0.900391 5.94667L0.900391 4.55919ZM89.8524 5.74349C90.1233 5.47256 90.1233 5.03331 89.8524 4.76239L85.4374 0.347448C85.1665 0.0765254 84.7273 0.0765254 84.4564 0.347448C84.1854 0.618371 84.1854 1.05762 84.4564 1.32855L88.3807 5.25294L84.4564 9.17733C84.1854 9.44825 84.1854 9.8875 84.4564 10.1584C84.7273 10.4293 85.1665 10.4293 85.4374 10.1584L89.8524 5.74349ZM8.27218 5.94667C8.65532 5.94667 8.96592 5.63607 8.96592 5.25293C8.96592 4.86979 8.65532 4.55919 8.27218 4.55919L8.27218 5.94667ZM23.0158 4.55919C22.6326 4.55919 22.322 4.86979 22.322 5.25293C22.322 5.63607 22.6326 5.94667 23.0158 5.94667L23.0158 4.55919ZM37.7593 5.94667C38.1425 5.94667 38.4531 5.63608 38.4531 5.25293C38.4531 4.86979 38.1425 4.55919 37.7593 4.55919L37.7593 5.94667ZM52.5029 4.55919C52.1198 4.55919 51.8092 4.86979 51.8092 5.25293C51.8092 5.63608 52.1198 5.94668 52.5029 5.94668L52.5029 4.55919ZM67.2465 5.94668C67.6296 5.94668 67.9402 5.63608 67.9402 5.25294C67.9402 4.86979 67.6296 4.55919 67.2465 4.55919L67.2465 5.94668ZM81.9901 4.5592C81.6069 4.5592 81.2963 4.86979 81.2963 5.25294C81.2963 5.63608 81.6069 5.94668 81.9901 5.94668L81.9901 4.5592ZM0.900391 5.94667L8.27218 5.94667L8.27218 4.55919L0.900391 4.55919L0.900391 5.94667ZM23.0158 5.94667L37.7593 5.94667L37.7593 4.55919L23.0158 4.55919L23.0158 5.94667ZM52.5029 5.94668L67.2465 5.94668L67.2465 4.55919L52.5029 4.55919L52.5029 5.94668ZM81.9901 5.94668L89.3618 5.94668L89.3618 4.5592L81.9901 4.5592L81.9901 5.94668ZM0.900391 4.55919C0.517248 4.55919 0.20665 4.86979 0.20665 5.25293C0.20665 5.63607 0.517248 5.94667 0.900391 5.94667L0.900391 4.55919ZM89.8524 5.74349C90.1233 5.47256 90.1233 5.03331 89.8524 4.76239L85.4374 0.347448C85.1665 0.0765254 84.7273 0.0765254 84.4564 0.347448C84.1854 0.618371 84.1854 1.05762 84.4564 1.32855L88.3807 5.25294L84.4564 9.17733C84.1854 9.44825 84.1854 9.8875 84.4564 10.1584C84.7273 10.4293 85.1665 10.4293 85.4374 10.1584L89.8524 5.74349ZM8.27218 5.94667C8.65532 5.94667 8.96592 5.63607 8.96592 5.25293C8.96592 4.86979 8.65532 4.55919 8.27218 4.55919L8.27218 5.94667ZM23.0158 4.55919C22.6326 4.55919 22.322 4.86979 22.322 5.25293C22.322 5.63607 22.6326 5.94667 23.0158 5.94667L23.0158 4.55919ZM37.7593 5.94667C38.1425 5.94667 38.4531 5.63608 38.4531 5.25293C38.4531 4.86979 38.1425 4.55919 37.7593 4.55919L37.7593 5.94667ZM52.5029 4.55919C52.1198 4.55919 51.8092 4.86979 51.8092 5.25293C51.8092 5.63608 52.1198 5.94668 52.5029 5.94668L52.5029 4.55919ZM67.2465 5.94668C67.6296 5.94668 67.9402 5.63608 67.9402 5.25294C67.9402 4.86979 67.6296 4.55919 67.2465 4.55919L67.2465 5.94668ZM81.9901 4.5592C81.6069 4.5592 81.2963 4.86979 81.2963 5.25294C81.2963 5.63608 81.6069 5.94668 81.9901 5.94668L81.9901 4.5592ZM0.900391 5.94667L8.27218 5.94667L8.27218 4.55919L0.900391 4.55919L0.900391 5.94667ZM23.0158 5.94667L37.7593 5.94667L37.7593 4.55919L23.0158 4.55919L23.0158 5.94667ZM52.5029 5.94668L67.2465 5.94668L67.2465 4.55919L52.5029 4.55919L52.5029 5.94668ZM81.9901 5.94668L89.3618 5.94668L89.3618 4.5592L81.9901 4.5592L81.9901 5.94668Z" fill="#134C75"/>
</svg>
